<?xml version="1.0" encoding="UTF-8" standalone="no"?>
<!-- Created with Serif DrawPlus 11, 0, 3, 23 (Feb 25, 14:12:55) (http://www.serif.com) -->
<svg version="1.1" xmlns="http://www.w3.org/2000/svg" xmlns:xlink="http://www.w3.org/1999/xlink" width="94.3053" height="151.78">
	<g id="dp_group001" transform="matrix(1,0,0,1,-101.291,-357.519)">
		<text id="dp_text001" transform="matrix(1.03503,9.04927e-016,-8.81236e-016,1,128.398,442.979)" xml:space="preserve" fill="#2a04e8" font-family="Arial" font-size="14" font-weight="700" x="0" y="0">e</text>
		<text id="dp_text002" transform="matrix(1.03919,9.08564e-016,-8.81236e-016,1,128.078,442.979)" xml:space="preserve" fill="#2a04e8" font-family="MathematicalPi 4" font-size="14" font-weight="400" font-style="italic" x="8.15467" y="0"> </text>
		<path id="dp_path004" fill="#e14f06" fill-rule="evenodd" d="M 158.755,487.245 C 159.187,487.236 159.621,487.089 160.057,486.805 C 160.48,486.536 160.883,486.169 161.267,485.712 C 162.049,484.752 162.656,483.651 163.088,482.408 C 163.296,481.793 163.444,481.199 163.533,480.621 C 163.608,480.047 163.605,479.527 163.524,479.065 C 163.455,478.605 163.299,478.235 163.064,477.96 C 162.816,477.687 162.479,477.552 162.049,477.552 C 161.629,477.552 161.207,477.687 160.784,477.96 C 160.359,478.235 159.949,478.605 159.557,479.065 C 158.752,480.039 158.136,481.152 157.711,482.408 C 157.288,483.651 157.149,484.752 157.299,485.712 C 157.379,486.169 157.54,486.536 157.777,486.805 C 158.013,487.089 158.336,487.236 158.755,487.245 Z M 161.716,482.421 L 161.427,483.269 C 161.056,484.365 160.659,485.237 160.236,485.884 C 159.793,486.556 159.337,486.896 158.869,486.907 C 158.425,486.896 158.212,486.556 158.231,485.884 C 158.227,485.237 158.412,484.365 158.783,483.269 L 159.072,482.421 Z M 159.256,481.88 L 159.604,480.856 C 159.869,480.071 160.207,479.389 160.613,478.812 C 160.821,478.531 161.037,478.304 161.26,478.133 C 161.48,477.972 161.705,477.891 161.933,477.891 C 162.18,477.891 162.357,477.972 162.469,478.133 C 162.577,478.304 162.637,478.531 162.655,478.812 C 162.651,479.389 162.515,480.071 162.249,480.856 L 161.899,481.88 Z "/>
		<path id="dp_path005" fill="none" fill-rule="evenodd" stroke="#e16806" stroke-width="2" d="M 104.563,423.537 C 112.028,410.467 135.148,408.381 156.203,418.88 C 177.256,429.377 188.271,448.484 180.807,461.555 C 176.903,468.387 168.724,472.219 158.797,472.82"/>
		<g id="dp_group006">
			<text id="dp_text003" transform="matrix(1.04016,9.09417e-016,-8.81236e-016,1,170.681,371.675)" xml:space="preserve" fill="#058510" font-family="Arial" font-size="14" font-weight="400" x="0" y="0">=</text>
			<text id="dp_text004" transform="matrix(1.03858,9.08033e-016,-8.81236e-016,1,170.349,371.675)" xml:space="preserve" fill="#058510" font-family="Arial" font-size="14" font-weight="400" x="8.608" y="0">  </text>
			<text id="dp_text005" transform="matrix(1.03503,9.04927e-016,-8.81236e-016,1,170.094,371.675)" xml:space="preserve" fill="#058510" font-family="Arial" font-size="14" font-weight="700" x="16.76" y="0">e</text>
			<text id="dp_text006" transform="matrix(1.03919,9.08564e-016,-8.81236e-016,1,169.705,371.675)" xml:space="preserve" fill="#058510" font-family="MathematicalPi 4" font-size="14" font-weight="400" font-style="italic" x="24.9147" y="0"> </text>
			<path id="dp_path011" fill="#058510" fill-rule="evenodd" d="M 182.212,372.148 C 182.644,372.139 183.079,371.992 183.515,371.708 C 183.937,371.437 184.341,371.072 184.724,370.615 C 185.507,369.655 186.113,368.553 186.545,367.311 C 186.753,366.695 186.901,366.101 186.991,365.524 C 187.065,364.948 187.063,364.429 186.981,363.968 C 186.912,363.507 186.756,363.137 186.521,362.863 C 186.273,362.588 185.936,362.455 185.507,362.455 C 185.087,362.455 184.664,362.588 184.241,362.863 C 183.816,363.137 183.407,363.507 183.015,363.968 C 182.209,364.941 181.593,366.055 181.168,367.311 C 180.745,368.553 180.608,369.655 180.756,370.615 C 180.836,371.072 180.997,371.437 181.235,371.708 C 181.471,371.992 181.793,372.139 182.212,372.148 Z M 185.173,367.324 L 184.884,368.171 C 184.513,369.268 184.116,370.14 183.695,370.787 C 183.252,371.459 182.795,371.799 182.327,371.809 C 181.883,371.799 181.669,371.459 181.688,370.787 C 181.684,370.14 181.869,369.268 182.24,368.171 L 182.529,367.324 Z M 182.713,366.783 L 183.061,365.759 C 183.327,364.973 183.664,364.292 184.071,363.715 C 184.279,363.433 184.495,363.207 184.717,363.036 C 184.937,362.875 185.163,362.792 185.391,362.792 C 185.637,362.792 185.815,362.875 185.927,363.036 C 186.035,363.207 186.095,363.433 186.112,363.715 C 186.108,364.292 185.972,364.973 185.707,365.759 L 185.356,366.783 Z "/>
			<path id="dp_path012" fill="#058510" fill-rule="evenodd" d="M 166.244,361.963 C 165.255,361.972 164.283,362.435 163.332,363.351 C 162.373,364.263 161.627,365.459 161.095,366.94 C 160.583,368.419 160.485,369.609 160.803,370.517 C 161.108,371.433 161.752,371.9 162.732,371.919 C 163.744,371.9 164.727,371.433 165.677,370.517 C 166.617,369.609 167.355,368.419 167.889,366.94 C 168.399,365.459 168.504,364.263 168.207,363.351 C 167.901,362.435 167.248,361.972 166.244,361.963 Z M 163.332,367.009 L 165.6,367.009 L 165.104,368.415 C 164.867,369.112 164.568,369.797 164.207,370.472 C 164.024,370.791 163.821,371.045 163.601,371.233 C 163.373,371.455 163.125,371.567 162.855,371.567 C 162.611,371.567 162.449,371.455 162.373,371.233 C 162.291,371.045 162.268,370.791 162.307,370.472 C 162.404,369.797 162.581,369.112 162.836,368.415 Z M 163.827,365.611 C 164.107,364.787 164.441,364.04 164.827,363.369 C 164.94,363.208 165.048,363.059 165.156,362.925 C 165.251,362.796 165.352,362.687 165.457,362.599 C 165.676,362.409 165.896,362.315 166.12,362.315 C 166.364,362.315 166.531,362.409 166.619,362.599 C 166.704,362.788 166.727,363.047 166.683,363.369 C 166.58,364.04 166.384,364.787 166.095,365.611 L 165.807,366.421 L 163.539,366.421 Z "/>
		</g>
		<g id="dp_group013">
			<g id="dp_group014">
				<path id="dp_path015" fill="#058510" fill-rule="evenodd" d="M 173.433,384.727 L 175.773,386.004 L 180.455,388.559 L 180.992,373.661 L 168.752,382.171 Z "/>
				<path id="dp_path016" fill="#058510" d="M 173.433,384.727 L 106.129,508.02 L 108.471,509.297 L 175.775,386.004 Z "/>
			</g>
		</g>
		<g id="dp_group017">
			<g id="dp_group018">
				<path id="dp_path019" fill="#2a04e8" fill-rule="evenodd" d="M 136.161,452.284 L 138.509,453.549 L 143.204,456.08 L 143.66,441.18 L 131.467,449.755 Z "/>
				<path id="dp_path020" fill="#2a04e8" d="M 136.163,452.285 L 106.127,508.027 L 108.473,509.291 L 138.509,453.549 Z "/>
			</g>
		</g>
		<g id="dp_group021">
			<g id="dp_group022">
				<path id="dp_path023" fill="#e16806" fill-rule="evenodd" d="M 148.853,471.372 L 148.763,473.371 L 148.584,477.367 L 158.797,472.82 L 149.032,467.376 Z "/>
				<path id="dp_path024" fill="#e16806" d="M 148.855,471.373 L 148.648,471.364 L 148.239,471.304 L 147.781,471.233 L 147.324,471.159 L 146.868,471.08 L 146.408,470.996 L 145.948,470.909 L 145.487,470.819 L 145.027,470.725 L 144.564,470.625 L 144.1,470.523 L 143.637,470.415 L 143.172,470.305 L 142.708,470.189 L 142.243,470.071 L 141.775,469.947 L 141.308,469.82 L 140.841,469.689 L 140.372,469.555 L 139.907,469.416 L 139.437,469.271 L 138.968,469.124 L 138.5,468.973 L 138.031,468.817 L 137.561,468.657 L 137.093,468.493 L 136.623,468.325 L 136.153,468.155 L 135.684,467.979 L 135.217,467.8 L 134.748,467.615 L 134.277,467.425 L 133.811,467.235 L 133.343,467.037 L 132.873,466.836 L 132.405,466.632 L 131.939,466.424 L 131.473,466.212 L 131.007,465.993 L 130.54,465.772 L 130.076,465.548 L 129.611,465.317 L 129.127,465.073 L 128.645,464.827 L 128.169,464.577 L 127.696,464.324 L 127.225,464.067 L 126.76,463.808 L 126.297,463.547 L 125.84,463.283 L 125.385,463.016 L 124.936,462.747 L 124.489,462.473 L 124.047,462.199 L 123.609,461.921 L 123.172,461.64 L 122.743,461.357 L 122.316,461.072 L 121.893,460.784 L 121.475,460.495 L 121.06,460.201 L 120.649,459.908 L 120.244,459.611 L 119.843,459.312 L 119.444,459.009 L 119.051,458.707 L 118.661,458.403 L 118.276,458.093 L 117.895,457.785 L 117.519,457.473 L 117.147,457.159 L 116.777,456.844 L 116.415,456.529 L 116.056,456.209 L 115.701,455.891 L 115.352,455.567 L 115.005,455.243 L 114.664,454.917 L 114.327,454.591 L 113.996,454.263 L 113.668,453.932 L 113.345,453.601 L 113.027,453.268 L 112.712,452.935 L 112.403,452.6 L 112.099,452.263 L 111.8,451.927 L 111.505,451.587 L 111.215,451.247 L 110.929,450.905 L 110.649,450.564 L 110.375,450.221 L 110.103,449.876 L 109.836,449.532 L 109.576,449.187 L 109.32,448.84 L 109.069,448.492 L 108.823,448.144 L 108.58,447.796 L 108.345,447.448 L 108.113,447.097 L 107.888,446.748 L 107.668,446.397 L 107.452,446.044 L 107.24,445.692 L 107.035,445.341 L 106.835,444.989 L 106.64,444.636 L 106.448,444.283 L 106.264,443.931 L 106.084,443.579 L 105.911,443.225 L 105.741,442.871 L 105.577,442.52 L 105.42,442.165 L 105.267,441.813 L 105.12,441.46 L 104.977,441.107 L 104.839,440.753 L 104.708,440.404 L 104.584,440.052 L 104.463,439.7 L 104.348,439.348 L 104.237,438.996 L 104.133,438.649 L 104.036,438.299 L 103.943,437.948 L 103.855,437.6 L 103.773,437.255 L 103.697,436.908 L 103.628,436.56 L 103.563,436.216 L 103.504,435.872 L 103.449,435.527 L 103.401,435.184 L 103.36,434.843 L 103.323,434.503 L 103.292,434.163 L 103.267,433.823 L 103.248,433.488 L 103.235,433.152 L 103.227,432.815 L 103.225,432.479 L 103.228,432.147 L 103.239,431.816 L 103.253,431.485 L 103.275,431.159 L 103.303,430.829 L 103.336,430.503 L 103.375,430.18 L 103.42,429.856 L 103.471,429.533 L 103.528,429.215 L 103.591,428.896 L 103.66,428.58 L 103.735,428.264 L 103.816,427.949 L 103.903,427.639 L 103.996,427.328 L 104.095,427.019 L 104.2,426.713 L 104.312,426.409 L 104.431,426.103 L 104.553,425.801 L 104.684,425.503 L 104.82,425.205 L 104.963,424.911 L 105.113,424.615 L 105.268,424.323 L 105.436,424.025 L 103.689,423.049 L 103.513,423.368 L 103.34,423.695 L 103.173,424.023 L 103.012,424.355 L 102.86,424.689 L 102.713,425.025 L 102.575,425.364 L 102.443,425.703 L 102.317,426.044 L 102.199,426.389 L 102.087,426.736 L 101.983,427.084 L 101.885,427.435 L 101.796,427.784 L 101.711,428.135 L 101.633,428.491 L 101.563,428.847 L 101.5,429.205 L 101.444,429.563 L 101.393,429.921 L 101.349,430.284 L 101.313,430.645 L 101.283,431.009 L 101.259,431.376 L 101.241,431.741 L 101.231,432.107 L 101.225,432.476 L 101.229,432.844 L 101.237,433.211 L 101.251,433.581 L 101.272,433.953 L 101.3,434.325 L 101.333,434.697 L 101.373,435.072 L 101.42,435.445 L 101.473,435.82 L 101.531,436.192 L 101.595,436.568 L 101.665,436.944 L 101.743,437.319 L 101.824,437.695 L 101.913,438.072 L 102.007,438.449 L 102.108,438.824 L 102.213,439.201 L 102.325,439.58 L 102.444,439.956 L 102.567,440.332 L 102.696,440.711 L 102.831,441.087 L 102.972,441.465 L 103.119,441.843 L 103.269,442.217 L 103.427,442.595 L 103.591,442.971 L 103.759,443.347 L 103.933,443.724 L 104.113,444.097 L 104.297,444.472 L 104.488,444.848 L 104.685,445.221 L 104.885,445.593 L 105.091,445.965 L 105.304,446.339 L 105.52,446.711 L 105.743,447.081 L 105.969,447.451 L 106.203,447.82 L 106.441,448.191 L 106.684,448.557 L 106.932,448.924 L 107.185,449.291 L 107.443,449.655 L 107.707,450.019 L 107.973,450.381 L 108.249,450.745 L 108.527,451.105 L 108.809,451.464 L 109.097,451.823 L 109.391,452.18 L 109.689,452.537 L 109.991,452.891 L 110.299,453.244 L 110.611,453.596 L 110.928,453.947 L 111.251,454.297 L 111.576,454.644 L 111.908,454.991 L 112.244,455.335 L 112.583,455.676 L 112.929,456.02 L 113.28,456.357 L 113.632,456.696 L 113.992,457.031 L 114.355,457.365 L 114.723,457.697 L 115.095,458.028 L 115.473,458.359 L 115.853,458.684 L 116.239,459.007 L 116.628,459.329 L 117.023,459.651 L 117.421,459.968 L 117.824,460.285 L 118.231,460.599 L 118.643,460.909 L 119.057,461.219 L 119.479,461.527 L 119.903,461.831 L 120.331,462.132 L 120.763,462.432 L 121.199,462.728 L 121.639,463.024 L 122.084,463.315 L 122.532,463.604 L 122.985,463.892 L 123.441,464.175 L 123.901,464.456 L 124.367,464.733 L 124.835,465.011 L 125.308,465.283 L 125.784,465.552 L 126.263,465.819 L 126.747,466.081 L 127.233,466.343 L 127.725,466.6 L 128.22,466.855 L 128.72,467.107 L 129.199,467.343 L 129.679,467.575 L 130.156,467.801 L 130.636,468.025 L 131.117,468.245 L 131.6,468.461 L 132.081,468.671 L 132.561,468.877 L 133.045,469.08 L 133.528,469.279 L 134.009,469.471 L 134.492,469.661 L 134.977,469.848 L 135.463,470.029 L 135.945,470.205 L 136.427,470.379 L 136.913,470.548 L 137.396,470.711 L 137.879,470.872 L 138.363,471.028 L 138.845,471.18 L 139.328,471.328 L 139.812,471.472 L 140.295,471.612 L 140.777,471.748 L 141.26,471.877 L 141.739,472.004 L 142.22,472.128 L 142.703,472.247 L 143.181,472.361 L 143.66,472.472 L 144.14,472.577 L 144.616,472.68 L 145.095,472.779 L 145.572,472.872 L 146.045,472.961 L 146.521,473.048 L 146.996,473.129 L 147.469,473.207 L 147.94,473.28 L 148.456,473.356 L 148.761,473.371 Z "/>
			</g>
		</g>
	</g>
</svg>